PathFileType	4	(X/Y/Z)	Patient4_TMGait_0pt3_01_left_22.trc.trc
DataRate	CameraRate	NumFrames	NumMarkers	Units	OrigDataRate	OrigDataStartFrame	OrigNumFrames
54.054054054054	54.054054054054	4	33	mm	54.054054054054	71	       141
Frame#	Time	Sacral			L.Shoulder			Chest			R.Shoulder			Neck			R.ASIS			L.ASIS			R.Thigh.Superior			R.Thigh.Lateral			R.Thigh.Inferior			R.Patella			L.Thigh.Superior			L.Thigh.Lateral			L.Thigh.Inferior			L.Patella			L.Shank.Superior			L.Shank.Lateral			L.Shank.Inferior			R.Shank.Superior			R.Shank.Lateral			R.Shank.Inferior			R.Heel			R.Midfoot.Superior			R.Midfoot.Lateral			R.Toe			L.Heel			L.Midfoot.Lateral			L.Midfoot.Superior			L.Toe			L.Elbow			L.Wrist			R.Elbow			R.Wrist			
		X1	Y1	Z1	X2	Y2	Z2	X3	Y3	Z3	X4	Y4	Z4	X5	Y5	Z5	X6	Y6	Z6	X7	Y7	Z7	X8	Y8	Z8	X9	Y9	Z9	X10	Y10	Z10	X11	Y11	Z11	X12	Y12	Z12	X13	Y13	Z13	X14	Y14	Z14	X15	Y15	Z15	X16	Y16	Z16	X17	Y17	Z17	X18	Y18	Z18	X19	Y19	Z19	X20	Y20	Z20	X21	Y21	Z21	X22	Y22	Z22	X23	Y23	Z23	X24	Y24	Z24	X25	Y25	Z25	X26	Y26	Z26	X27	Y27	Z27	X28	Y28	Z28	X29	Y29	Z29	X30	Y30	Z30	X31	Y31	Z31	X32	Y32	Z32	X33	Y33	Z33	

71	42.525000000000	737.088223439569	1016.666176027954	428.454648690167	1000.478785469436	1436.829548603268	310.236045475556	1046.049830964120	1353.960243038804	489.010465437727	922.429554615658	1431.169656214937	635.594103284569	945.425216911589	1494.057044379276	462.997009407797	935.485293897025	947.965968332661	594.180771154815	977.230136421592	956.319845661158	322.212783165171	1009.693766859666	773.751641805765	570.291035072353	957.509249147569	653.428009313304	636.808081801977	1048.487096496419	609.738905160886	564.187422199860	1071.979022591926	515.149581671039	588.041063294728	989.152157162677	732.540947315394	361.496350986169	894.004410123811	624.623739163998	292.771703171584	955.000539793507	541.622219378983	371.921235809025	944.560331915383	473.371974134659	382.762948831622	909.548928259612	404.964368767345	372.726114822955	812.310479722534	299.487827299820	318.227254715014	839.874104392688	186.673385414666	397.503914587680	1029.298311420178	429.017644626862	596.160990892842	940.530004022879	340.485510309123	656.865967324064	981.224931139705	237.478896392177	610.018795300641	838.826067402113	80.666729065433	579.804685884835	1009.411366056894	120.289299764388	626.012594471514	917.938539373442	61.619118748157	656.055525424717	1122.321357408539	62.913081322007	656.368230215849	694.545226641020	39.329645332714	436.508476174844	769.873606160697	35.834440106555	357.544639925751	854.501246082108	95.339145539522	386.249633266465	982.153902106610	39.860607130201	358.452070274246	1096.152620175399	1134.417425581465	137.439534926819	1338.596334595483	1047.314773133619	175.126050790087	740.815456837529	1120.267503544485	686.717536316804	681.753648224227	866.813750587991	692.256861569838	
72	42.543500000000	737.515334953346	1016.392179438441	428.896830099907	1002.576582435903	1436.226593477979	313.096229230771	1045.805126339046	1353.598070228224	492.559578136598	920.630260060190	1431.539751441962	637.414588818103	945.627422819380	1493.754609308183	465.105078036864	934.269636574712	947.561498996708	596.962699581246	978.462397043431	955.843193370375	325.241331835553	1006.747361987403	771.965187129383	573.748171332635	952.654438698022	652.102266641019	639.449145341736	1043.646035013353	608.220877390790	567.113616080225	1068.108734796633	516.984975405327	589.972081110290	987.007349043497	731.267982455832	364.026742847686	890.877725962070	624.792440578410	293.388358003804	949.827817522217	540.796761939957	372.661781805511	938.203467273894	472.995484400391	383.125462357079	903.765757403963	404.874210540063	372.882248284560	806.641066567816	299.389328521800	318.159233238437	834.111172463166	186.556877829987	397.486965523685	1031.486392956555	429.754472339071	598.570140130658	949.757604079410	334.527619948098	660.231847132817	998.161712922669	234.357457882143	613.269765956412	866.961947202281	67.464256758654	584.058061861278	1035.818216921274	117.910567881755	629.330734078422	948.059767145189	53.081754109603	659.699323248514	1153.116105614304	67.329853283938	658.813846509262	688.952758907147	39.163181967616	436.448313649477	764.243023426727	35.710463197816	357.492038015240	848.828846514275	95.255869547437	386.251951934260	976.525240780051	39.874385376353	358.521915395525	1104.268709098584	1136.045379462502	141.682105058460	1349.959830498671	1061.815404887632	182.953392901122	734.504542031016	1123.722684973411	686.509622818532	673.015903569575	870.787542639031	691.878189654017	
73	42.562000000000	738.244999161191	1015.465275552389	429.859690291713	1004.099209486194	1435.272157963497	316.113223995033	1045.559604788039	1352.924090641103	496.118882448755	919.112090469766	1431.373972886709	639.579633995134	945.651326543472	1493.037038803670	467.498455272227	933.648704429895	946.544056443888	599.783509921891	979.898286635458	955.014869439763	328.308611988736	1004.254547260962	769.322380149122	577.446075308791	947.882486781782	649.969046882081	642.128625722824	1039.050669579298	605.899607383733	570.221107769502	1063.954414775764	517.750594743344	591.928466625799	985.543830690813	729.847909208848	366.566825482815	888.499541789396	624.639751598355	294.242223860980	945.632561942661	539.752829221786	373.525764034901	932.905979719685	472.312477133611	383.651336982767	898.806570931534	404.439693840132	373.241541908106	801.526062167422	299.199619054700	318.246910782221	828.636853752142	186.262411207681	397.541825759867	1032.865573153785	429.745815462630	600.932087009156	957.523466736964	328.907253111042	663.201653990292	1012.716828462365	231.615376769471	616.192793966377	891.734494048364	56.929750699624	587.620512945963	1058.780745042842	115.956552488335	632.184826155437	974.202122714434	46.349668666500	662.743154000813	1179.341551235511	70.866311156212	660.950052568370	683.369489478153	38.983479793587	436.390136571499	758.627157906917	35.580710661245	357.447124093542	843.162533817368	95.154962274803	386.282574905847	970.901072124768	39.862258926587	358.586533726820	1111.667389522155	1137.146393196104	146.314505354244	1359.847332044629	1075.488338351408	190.931401718294	729.839188079503	1125.886088648186	687.143578426289	667.188717673164	873.141702698698	692.795285678201	
74	42.580500000000	739.289542743767	1013.985839704174	431.369043254398	1005.052436599268	1434.078253151927	319.303172887843	1045.329879151882	1352.042479387683	499.712945633730	917.858180833094	1430.744791960283	642.125974491943	945.495347332726	1491.994311251193	470.210996448807	933.653039157616	945.041594524524	602.660687587183	981.562790559246	953.933637987659	331.427166597647	1002.466251253550	766.145546990017	581.303426555829	943.606843092603	647.249668030755	644.741660775267	1035.153977077181	603.098553003199	573.417582305800	1059.982958451723	517.584055017826	593.847268585617	984.775776648528	728.315524124589	369.098896829248	886.824708201841	624.226945730126	295.376610079484	942.380810807351	538.533833800944	374.545901081399	928.641436610049	471.360799109630	384.380494890495	894.629733052482	403.715752906995	373.825998199740	796.923940713224	298.973449479028	318.505482084375	823.435054233924	185.833095426583	397.673454187123	1033.674058001907	429.046820352182	603.152938574239	963.714211276609	323.774910559385	665.633872165509	1024.542115119014	229.184495749007	618.626196096204	912.208857531492	49.103321265288	590.294633044314	1077.622677825244	114.280075994164	634.388189879491	995.464898660664	41.380878654420	665.048661615365	1200.341587247314	73.150288640063	662.668976538923	677.788903710355	38.814479562527	436.326053538543	753.026956570040	35.457416505751	357.406490963693	837.507330932359	95.052326606490	386.329844155710	965.283759961241	39.820478941220	358.639993677026	1118.241753058743	1137.773561378860	151.299367345448	1368.222792248282	1088.230983339805	198.975847410900	726.786676767114	1126.759682839657	688.640394248473	664.209992726803	873.866382247019	695.002325237476	
